<svg width="20" height="20" viewBox="0 0 20 20" fill="none" xmlns="http://www.w3.org/2000/svg">
<circle cx="10" cy="10" r="10" fill="#FFC702"/>
<path d="M10.1955 15.3886C10.167 15.3891 10.139 15.3888 10.1109 15.3879C10.0931 15.3896 10.0743 15.3907 10.0557 15.391C9.39996 15.4025 8.97388 15.1123 8.5619 14.8317C8.27742 14.638 8.00898 14.4552 7.69561 14.4086C7.5427 14.3861 7.39072 14.3759 7.24407 14.3784C6.97987 14.3831 6.77214 14.4275 6.62051 14.4599C6.52835 14.4796 6.44885 14.4965 6.38823 14.4976C6.32489 14.4987 6.25601 14.4862 6.22441 14.3848C6.19694 14.297 6.1767 14.2118 6.15721 14.1294C6.10702 13.9173 6.07173 13.7869 5.98227 13.7748C4.93947 13.6323 4.63799 13.4184 4.56891 13.2642C4.55913 13.2421 4.55339 13.2199 4.55174 13.1979C4.54733 13.1383 4.58871 13.0848 4.64753 13.0741C6.24165 12.783 6.93004 11.1365 6.95858 11.0666C6.95935 11.0646 6.96021 11.0628 6.96104 11.0608C7.05544 10.8608 7.07159 10.6884 7.00926 10.5483C6.89504 10.2917 6.53525 10.1843 6.29706 10.1133C6.23879 10.096 6.18355 10.0796 6.13991 10.0632C5.66401 9.88463 5.62133 9.69352 5.6382 9.59545C5.66696 9.42833 5.88753 9.30837 6.06755 9.30523C6.11693 9.30436 6.16053 9.31236 6.19737 9.32878C6.41174 9.42467 6.60422 9.47181 6.76956 9.46892C6.99801 9.46494 7.09605 9.36719 7.10803 9.35439C7.10033 9.2463 7.09116 9.1334 7.08178 9.01694C7.02097 8.26193 6.94558 7.32379 7.17535 6.78352C7.86398 5.16406 9.38161 5.01271 9.83033 5.00487C9.84182 5.00467 10.027 4.99948 10.027 4.99948L10.0536 4.99891C10.5033 4.99106 12.0287 5.08954 12.7738 6.68485C13.0224 7.21705 12.9796 8.15806 12.9451 8.91415L12.9437 8.94701C12.9389 9.05231 12.9343 9.15462 12.9307 9.25258C12.9423 9.26405 13.0355 9.35073 13.2428 9.35506C13.4001 9.34628 13.5803 9.29294 13.7772 9.1965C13.8349 9.16833 13.8994 9.16146 13.9434 9.16069C14.0106 9.15952 14.0789 9.17134 14.1359 9.19396L14.1393 9.1953C14.3009 9.2494 14.4081 9.36012 14.4124 9.47767C14.4164 9.58837 14.3348 9.75634 13.9229 9.92741C13.8802 9.94504 13.8256 9.96346 13.7677 9.98292C13.5319 10.0623 13.1762 10.1821 13.0711 10.4425C13.0136 10.5845 13.0358 10.7562 13.1371 10.9529C13.138 10.9548 13.139 10.9567 13.1398 10.9587C13.1708 11.0275 13.9156 12.6485 15.5196 12.8841C15.5788 12.8928 15.6219 12.9448 15.6197 13.0046C15.6187 13.027 15.6137 13.0497 15.6045 13.0718C15.5412 13.2273 15.2476 13.4512 14.2101 13.6301C14.1253 13.6446 14.0943 13.756 14.0477 13.9891C14.0307 14.0739 14.0135 14.1573 13.9893 14.245C13.9685 14.3212 13.9219 14.3575 13.8424 14.3588L13.8295 14.3591C13.7744 14.36 13.6958 14.3515 13.5962 14.3338C13.4195 14.3024 13.2214 14.2741 12.9702 14.2785C12.8235 14.2811 12.6719 14.2965 12.5198 14.3244C12.2086 14.3819 11.9468 14.5736 11.6698 14.7768C11.2671 15.0723 10.8515 15.3772 10.1955 15.3886Z" fill="white"/>
</svg>
