<svg width="40" height="40" viewBox="0 0 40 40" fill="none" xmlns="http://www.w3.org/2000/svg">
<circle cx="20" cy="20" r="20" fill="#FFC702"/>
<path d="M20.3911 30.7772C20.3341 30.7782 20.278 30.7775 20.2219 30.7758C20.1862 30.7792 20.1487 30.7814 20.1114 30.7821C18.7999 30.8049 17.9478 30.2246 17.1238 29.6634C16.5549 29.276 16.018 28.9104 15.3913 28.8172C15.0854 28.7721 14.7815 28.7517 14.4882 28.7569C13.9598 28.7661 13.5443 28.8549 13.241 28.9197C13.0567 28.9592 12.8977 28.9931 12.7765 28.9952C12.6498 28.9974 12.512 28.9724 12.4488 28.7696C12.3939 28.5939 12.3534 28.4235 12.3145 28.2587C12.2141 27.8345 12.1435 27.5738 11.9646 27.5495C9.87897 27.2645 9.27602 26.8369 9.13786 26.5283C9.11828 26.4842 9.10682 26.4398 9.10351 26.3958C9.0947 26.2765 9.17744 26.1696 9.2951 26.1482C12.4833 25.5659 13.8601 22.2729 13.9172 22.1331C13.9187 22.1292 13.9204 22.1255 13.9221 22.1216C14.1109 21.7217 14.1432 21.3767 14.0186 21.0966C13.7901 20.5833 13.0705 20.3686 12.5942 20.2266C12.4776 20.1919 12.3671 20.1591 12.2798 20.1264C11.328 19.7692 11.2427 19.387 11.2764 19.1909C11.3339 18.8566 11.7751 18.6167 12.1351 18.6104C12.2339 18.6087 12.3211 18.6247 12.3948 18.6575C12.8235 18.8493 13.2085 18.9436 13.5391 18.9378C13.9961 18.9298 14.1921 18.7343 14.2161 18.7087C14.2007 18.4926 14.1824 18.2668 14.1636 18.0338C14.042 16.5238 13.8912 14.6475 14.3507 13.567C15.728 10.3281 18.7632 10.0254 19.6607 10.0097C19.6837 10.0093 20.0541 9.99893 20.0541 9.99893L20.1072 9.99778C21.0067 9.98208 24.0573 10.1791 25.5476 13.3697C26.0447 14.4341 25.9592 16.3161 25.8902 17.8283L25.8874 17.894C25.8778 18.1046 25.8686 18.3092 25.8613 18.5051C25.8846 18.5281 26.0711 18.7014 26.4856 18.7101C26.8002 18.6925 27.1607 18.5859 27.5544 18.393C27.6699 18.3366 27.7989 18.3229 27.8869 18.3214C28.0212 18.319 28.1579 18.3426 28.2718 18.3879L28.2787 18.3906C28.6019 18.4988 28.8162 18.7202 28.8248 18.9553C28.8328 19.1767 28.6696 19.5127 27.8459 19.8548C27.7605 19.8901 27.6512 19.9269 27.5355 19.9658C27.0639 20.1245 26.3525 20.3641 26.1422 20.8849C26.0273 21.1691 26.0717 21.5124 26.2743 21.9058C26.2761 21.9096 26.2781 21.9133 26.2797 21.9173C26.3416 22.055 27.8312 25.297 31.0392 25.7682C31.1577 25.7856 31.2438 25.8895 31.2394 26.0092C31.2375 26.054 31.2274 26.0993 31.209 26.1435C31.0825 26.4545 30.4953 26.9024 28.4202 27.2602C28.2507 27.2893 28.1887 27.5119 28.0954 27.9781C28.0615 28.1478 28.027 28.3145 27.9786 28.49C27.937 28.6423 27.8438 28.7149 27.6849 28.7177L27.659 28.7181C27.5488 28.72 27.3917 28.703 27.1924 28.6675C26.839 28.6048 26.4429 28.5482 25.9404 28.557C25.647 28.5621 25.3438 28.593 25.0396 28.6488C24.4172 28.7638 23.8937 29.1472 23.3396 29.5536C22.5342 30.1446 21.7029 30.7543 20.3911 30.7772Z" fill="white"/>
</svg>
